<svg xmlns="http://www.w3.org/2000/svg" width="24.995" height="28.641" viewBox="0 0 24.995 28.641">
  <g id="attendees" transform="translate(-519.731 -149.278)">
    <path id="Path_10093" data-name="Path 10093" d="M298.147,590.9a1.635,1.635,0,1,1,1.635-1.635A1.637,1.637,0,0,1,298.147,590.9Z" transform="translate(234.082 -422.33)" fill="#556068"/>
    <g id="Group_13633" data-name="Group 13633">
      <path id="Path_10089" data-name="Path 10089" d="M299.946,592.122l2.442,2.065a1.854,1.854,0,0,1,.677,1.432v4.68" transform="translate(233.798 -422.701)" fill="none" stroke="#556068" stroke-linecap="round" stroke-linejoin="round" stroke-width="0.642"/>
      <path id="Path_10090" data-name="Path 10090" d="M296.361,592.122l-2.442,2.065a1.854,1.854,0,0,0-.677,1.432v4.68" transform="translate(234.352 -422.701)" fill="none" stroke="#556068" stroke-linecap="round" stroke-linejoin="round" stroke-width="0.642"/>
      <path id="Path_10091" data-name="Path 10091" d="M301.446,596.424l.007.988v3.243" transform="translate(233.675 -423.055)" fill="none" stroke="#556068" stroke-linecap="round" stroke-linejoin="round" stroke-width="0.642"/>
      <path id="Path_10092" data-name="Path 10092" d="M295.142,596.424l-.007.988v3.243" transform="translate(234.195 -423.055)" fill="none" stroke="#556068" stroke-linecap="round" stroke-linejoin="round" stroke-width="0.642"/>
      <circle id="Ellipse_8240" data-name="Ellipse 8240" cx="2.913" cy="2.913" r="2.913" transform="translate(529.315 164.02)" stroke-width="0.642" stroke="#556068" stroke-linecap="round" stroke-linejoin="round" fill="none"/>
      <path id="Path_10094" data-name="Path 10094" d="M308.065,590.617l2.229,1.893a1.7,1.7,0,0,1,.619,1.311V598.1" transform="translate(233.129 -422.576)" fill="none" stroke="#556068" stroke-linecap="round" stroke-linejoin="round" stroke-width="0.642"/>
      <line id="Line_1723" data-name="Line 1723" x1="2.23" y2="1.893" transform="translate(536.179 168.041)" fill="none" stroke="#556068" stroke-linecap="round" stroke-linejoin="round" stroke-width="0.642"/>
      <path id="Path_10095" data-name="Path 10095" d="M309.431,594.557l.007.9v2.968" transform="translate(233.016 -422.901)" fill="none" stroke="#556068" stroke-linecap="round" stroke-linejoin="round" stroke-width="0.642"/>
      <circle id="Ellipse_8241" data-name="Ellipse 8241" cx="2.666" cy="2.666" r="2.666" transform="translate(537.135 163.101)" stroke-width="0.642" stroke="#556068" stroke-linecap="round" stroke-linejoin="round" fill="none"/>
      <path id="Path_10096" data-name="Path 10096" d="M288.188,590.617l-2.23,1.893a1.7,1.7,0,0,0-.619,1.311V598.1" transform="translate(235.004 -422.576)" fill="none" stroke="#556068" stroke-linecap="round" stroke-linejoin="round" stroke-width="0.642"/>
      <line id="Line_1724" data-name="Line 1724" x2="2.23" y2="1.893" transform="translate(525.976 168.041)" fill="none" stroke="#556068" stroke-linecap="round" stroke-linejoin="round" stroke-width="0.642"/>
      <path id="Path_10097" data-name="Path 10097" d="M287.077,594.557l-.007.9v2.968" transform="translate(234.861 -422.901)" fill="none" stroke="#556068" stroke-linecap="round" stroke-linejoin="round" stroke-width="0.642"/>
      <path id="Path_10098" data-name="Path 10098" d="M287.056,587.9a2.666,2.666,0,1,0,2.666-2.666A2.666,2.666,0,0,0,287.056,587.9Z" transform="translate(234.862 -422.132)" fill="none" stroke="#556068" stroke-linecap="round" stroke-linejoin="round" stroke-width="0.642"/>
      <line id="Line_1725" data-name="Line 1725" y2="12.708" transform="translate(532.227 149.601)" fill="none" stroke="#556068" stroke-linecap="round" stroke-linejoin="round" stroke-width="0.642"/>
      <path id="Path_10099" data-name="Path 10099" d="M285.022,582.706a12.177,12.177,0,1,1,24.354.018" transform="translate(235.03 -420.918)" fill="none" stroke="#556068" stroke-linecap="round" stroke-linejoin="round" stroke-width="0.642"/>
      <path id="Path_10100" data-name="Path 10100" d="M294.194,573.559a14.261,14.261,0,0,0-3.014,9.385" transform="translate(234.522 -421.169)" fill="none" stroke="#556068" stroke-linecap="round" stroke-linejoin="round" stroke-width="0.642"/>
      <path id="Path_10101" data-name="Path 10101" d="M297.531,577.778c-6.723,0-8.466-3.527-8.466-3.527" transform="translate(234.696 -421.226)" fill="none" stroke="#556068" stroke-linecap="round" stroke-linejoin="round" stroke-width="0.642"/>
      <path id="Path_10102" data-name="Path 10102" d="M302.123,573.559a14.261,14.261,0,0,1,3.014,9.385" transform="translate(233.619 -421.169)" fill="none" stroke="#556068" stroke-linecap="round" stroke-linejoin="round" stroke-width="0.642"/>
      <path id="Path_10103" data-name="Path 10103" d="M298.3,577.778c6.723,0,8.466-3.527,8.466-3.527" transform="translate(233.935 -421.226)" fill="none" stroke="#556068" stroke-linecap="round" stroke-linejoin="round" stroke-width="0.642"/>
      <path id="Path_10104" data-name="Path 10104" d="M285.486,587.143a12.2,12.2,0,0,1-.464-3.341" transform="translate(235.03 -422.014)" fill="none" stroke="#556068" stroke-linecap="round" stroke-linejoin="round" stroke-width="0.642"/>
      <path id="Path_10105" data-name="Path 10105" d="M311.525,583.8a12.2,12.2,0,0,1-.462,3.331" transform="translate(232.881 -422.014)" fill="none" stroke="#556068" stroke-linecap="round" stroke-linejoin="round" stroke-width="0.642"/>
    </g>
  </g>
</svg>
