<svg xmlns="http://www.w3.org/2000/svg" width="28.129" height="28.129" viewBox="0 0 28.129 28.129">
  <g id="company-phone" transform="translate(-48.655 -154.679)">
    <path id="Path_16104" data-name="Path 16104" d="M2183.952,2127.544,2180,2123.59a1.409,1.409,0,0,0-1.994,0l-1.986,1.986a1.507,1.507,0,0,1-1.871.215,23.512,23.512,0,0,1-7.308-7.3,1.508,1.508,0,0,1,.22-1.864l1.992-1.992a1.409,1.409,0,0,0,0-1.994l-3.953-3.954a1.412,1.412,0,0,0-1.995,0l-2.342,2.344a1.9,1.9,0,0,0-.443,2,32.468,32.468,0,0,0,19.294,19.294,1.9,1.9,0,0,0,2-.443l2.344-2.342A1.409,1.409,0,0,0,2183.952,2127.544Z" transform="translate(-2111.203 -1949.976)" fill="none" stroke="#556068" stroke-linecap="round" stroke-miterlimit="10" stroke-width="0.642"/>
    <rect id="Rectangle_1036" data-name="Rectangle 1036" width="2.895" height="2.895" transform="translate(73.568 155)" fill="none" stroke="#556068" stroke-linecap="round" stroke-miterlimit="10" stroke-width="0.642"/>
    <rect id="Rectangle_1037" data-name="Rectangle 1037" width="2.895" height="2.895" transform="translate(62.931 155)" fill="none" stroke="#556068" stroke-linecap="round" stroke-miterlimit="10" stroke-width="0.642"/>
    <rect id="Rectangle_1038" data-name="Rectangle 1038" width="2.896" height="2.895" transform="translate(68.249 155)" fill="none" stroke="#556068" stroke-linecap="round" stroke-miterlimit="10" stroke-width="0.642"/>
    <rect id="Rectangle_1039" data-name="Rectangle 1039" width="2.895" height="2.895" transform="translate(73.568 160.319)" fill="none" stroke="#556068" stroke-linecap="round" stroke-miterlimit="10" stroke-width="0.642"/>
    <rect id="Rectangle_1040" data-name="Rectangle 1040" width="2.895" height="2.895" transform="translate(62.931 160.319)" fill="none" stroke="#556068" stroke-linecap="round" stroke-miterlimit="10" stroke-width="0.642"/>
    <rect id="Rectangle_1041" data-name="Rectangle 1041" width="2.896" height="2.895" transform="translate(68.249 160.319)" fill="none" stroke="#556068" stroke-linecap="round" stroke-miterlimit="10" stroke-width="0.642"/>
    <rect id="Rectangle_1042" data-name="Rectangle 1042" width="2.895" height="2.895" transform="translate(73.568 165.637)" fill="none" stroke="#556068" stroke-linecap="round" stroke-miterlimit="10" stroke-width="0.642"/>
    <rect id="Rectangle_1043" data-name="Rectangle 1043" width="2.895" height="2.895" transform="translate(62.931 165.637)" fill="none" stroke="#556068" stroke-linecap="round" stroke-miterlimit="10" stroke-width="0.642"/>
    <rect id="Rectangle_1044" data-name="Rectangle 1044" width="2.896" height="2.895" transform="translate(68.249 165.637)" fill="none" stroke="#556068" stroke-linecap="round" stroke-miterlimit="10" stroke-width="0.642"/>
    <path id="Path_16105" data-name="Path 16105" d="M2183.063,2128.434l-2.368-2.368a9.872,9.872,0,0,1-2.417,4.364q.87.381,1.767.712a.618.618,0,0,0,.216.038h0a.652.652,0,0,0,.458-.19l2.343-2.342a.151.151,0,0,0,0-.214Z" transform="translate(-2111.203 -1949.976)" fill="#556068"/>
  </g>
</svg>
