<svg xmlns="http://www.w3.org/2000/svg" width="26.125" height="28.71" viewBox="0 0 26.125 28.71">
  <g id="company-name" transform="translate(-1251.671 -26.589)">
    <line id="Line_3519" data-name="Line 3519" y1="0.716" transform="translate(1255.008 44.387)" fill="none" stroke="#556068" stroke-miterlimit="10" stroke-width="0.642"/>
    <line id="Line_3520" data-name="Line 3520" y1="0.716" transform="translate(1255.008 42.142)" fill="none" stroke="#556068" stroke-miterlimit="10" stroke-width="0.642"/>
    <line id="Line_3521" data-name="Line 3521" y1="0.716" transform="translate(1257.662 44.387)" fill="none" stroke="#556068" stroke-miterlimit="10" stroke-width="0.642"/>
    <line id="Line_3522" data-name="Line 3522" y1="0.716" transform="translate(1257.662 42.142)" fill="none" stroke="#556068" stroke-miterlimit="10" stroke-width="0.642"/>
    <line id="Line_3523" data-name="Line 3523" y1="0.716" transform="translate(1255.008 51.023)" fill="none" stroke="#556068" stroke-miterlimit="10" stroke-width="0.642"/>
    <line id="Line_3524" data-name="Line 3524" y1="0.716" transform="translate(1255.008 48.778)" fill="none" stroke="#556068" stroke-miterlimit="10" stroke-width="0.642"/>
    <line id="Line_3525" data-name="Line 3525" y1="0.716" transform="translate(1255.008 46.63)" fill="none" stroke="#556068" stroke-miterlimit="10" stroke-width="0.642"/>
    <line id="Line_3526" data-name="Line 3526" y1="0.716" transform="translate(1257.662 51.023)" fill="none" stroke="#556068" stroke-miterlimit="10" stroke-width="0.642"/>
    <line id="Line_3527" data-name="Line 3527" y1="0.716" transform="translate(1257.662 48.778)" fill="none" stroke="#556068" stroke-miterlimit="10" stroke-width="0.642"/>
    <line id="Line_3528" data-name="Line 3528" y1="0.716" transform="translate(1257.662 46.63)" fill="none" stroke="#556068" stroke-miterlimit="10" stroke-width="0.642"/>
    <line id="Line_3529" data-name="Line 3529" y1="0.716" transform="translate(1260.537 44.387)" fill="none" stroke="#556068" stroke-miterlimit="10" stroke-width="0.642"/>
    <line id="Line_3530" data-name="Line 3530" y1="0.716" transform="translate(1260.537 42.142)" fill="none" stroke="#556068" stroke-miterlimit="10" stroke-width="0.642"/>
    <line id="Line_3531" data-name="Line 3531" y1="0.716" transform="translate(1260.537 51.023)" fill="none" stroke="#556068" stroke-miterlimit="10" stroke-width="0.642"/>
    <line id="Line_3532" data-name="Line 3532" y1="0.716" transform="translate(1260.537 48.778)" fill="none" stroke="#556068" stroke-miterlimit="10" stroke-width="0.642"/>
    <line id="Line_3533" data-name="Line 3533" y1="0.716" transform="translate(1260.537 46.63)" fill="none" stroke="#556068" stroke-miterlimit="10" stroke-width="0.642"/>
    <path id="Path_14008" data-name="Path 14008" d="M416.528,1931.227v1.5H402.962v-15.151a1.039,1.039,0,0,1,1.039-1.039h11.489a1.039,1.039,0,0,1,1.039,1.039v.454" transform="translate(849.03 -1877.753)" fill="none" stroke="#556068" stroke-linecap="round" stroke-linejoin="round" stroke-width="0.642"/>
    <path id="Path_14009" data-name="Path 14009" d="M415.288,1916.173V1915.1a3.687,3.687,0,0,0-3.687-3.687h-3.525a3.687,3.687,0,0,0-3.686,3.687v1.073" transform="translate(848.936 -1877.414)" fill="none" stroke="#556068" stroke-linecap="round" stroke-linejoin="round" stroke-width="0.642"/>
    <path id="Path_14010" data-name="Path 14010" d="M408.337,1911.277v-1.356a.563.563,0,0,1,.562-.562h2.4a.562.562,0,0,1,.562.562v1.356" transform="translate(848.675 -1877.279)" fill="none" stroke="#556068" stroke-linecap="round" stroke-linejoin="round" stroke-width="0.642"/>
    <path id="Path_14011" data-name="Path 14011" d="M410.224,1909v-4.807a1.328,1.328,0,0,0,1.013.244,4.674,4.674,0,0,0,1.025-.3,2.984,2.984,0,0,1,1.039-.234,2.317,2.317,0,0,1,.961.251v2.636a2.314,2.314,0,0,0-.961-.251,2.974,2.974,0,0,0-1.039.235c-.219.081-.438.166-.663.229" transform="translate(848.55 -1876.918)" fill="none" stroke="#556068" stroke-linecap="round" stroke-miterlimit="10" stroke-width="0.642"/>
    <path id="Path_14012" data-name="Path 14012" d="M428.837,1923.994v5.813a.56.56,0,0,1-.559.559H416.154a.56.56,0,0,1-.559-.559v-5.813" transform="translate(848.195 -1878.245)" fill="none" stroke="#556068" stroke-linecap="round" stroke-linejoin="round" stroke-width="0.642"/>
    <path id="Path_14013" data-name="Path 14013" d="M421.363,1924.233a40.98,40.98,0,0,1-6.036-.569.25.25,0,0,1-.207-.247v-3.259a.559.559,0,0,1,.559-.559H428.69a.559.559,0,0,1,.558.559v3.259a.25.25,0,0,1-.208.247,40.956,40.956,0,0,1-6.035.569" transform="translate(848.227 -1877.955)" fill="none" stroke="#556068" stroke-linecap="round" stroke-linejoin="round" stroke-width="0.642"/>
    <rect id="Rectangle_916" data-name="Rectangle 916" width="1.643" height="1.644" rx="0.349" transform="translate(1269.59 45.464)" stroke-width="0.642" stroke="#556068" stroke-linecap="round" stroke-linejoin="round" fill="none"/>
    <path id="Path_14014" data-name="Path 14014" d="M425.546,1919.471v-1.163a.655.655,0,0,0-.654-.655h-4.851a.654.654,0,0,0-.654.655v1.163" transform="translate(847.945 -1877.827)" fill="none" stroke="#556068" stroke-linecap="round" stroke-linejoin="round" stroke-width="0.642"/>
    <path id="Path_14015" data-name="Path 14015" d="M411.689,1912.726h-3.525a2.463,2.463,0,0,0-2.441,2.173h8.408A2.463,2.463,0,0,0,411.689,1912.726Z" transform="translate(848.847 -1877.501)" fill="#556068"/>
  </g>
</svg>
