<svg xmlns="http://www.w3.org/2000/svg" width="28.642" height="28.642" viewBox="0 0 28.642 28.642">
  <g id="company-logo" transform="translate(-158.679 -104.679)">
    <path id="Path_9034" data-name="Path 9034" d="M1975.735,1213.361a11.868,11.868,0,1,1,11.868-11.868A11.882,11.882,0,0,1,1975.735,1213.361Zm0-22.881a11.013,11.013,0,1,0,11.013,11.013A11.025,11.025,0,0,0,1975.735,1190.48Z" transform="translate(-1802.836 -1082.593)" fill="#556068"/>
    <g id="Group_13643" data-name="Group 13643">
      <circle id="Ellipse_8174" data-name="Ellipse 8174" cx="14" cy="14" r="14" transform="translate(159 105)" stroke-width="0.642" stroke="#556068" stroke-linecap="round" stroke-linejoin="round" fill="none"/>
      <path id="Path_9035" data-name="Path 9035" d="M1984.457,1206.525h-5.4v-4.648l-3.264,3.264-3.264-3.264v4.648h-5.041" transform="translate(-1802.795 -1082.49)" fill="none" stroke="#556068" stroke-linecap="round" stroke-linejoin="round" stroke-width="0.642"/>
      <path id="Path_9036" data-name="Path 9036" d="M1966.605,1203.812h3.171v-8.553l6.025,6.025,6.025-6.025v8.553h3.517" transform="translate(-1802.801 -1082.538)" fill="none" stroke="#556068" stroke-linecap="round" stroke-linejoin="round" stroke-width="0.642"/>
    </g>
  </g>
</svg>
