<svg xmlns="http://www.w3.org/2000/svg" width="28.188" height="28.774" viewBox="0 0 28.188 28.774">
  <g id="company-description" transform="translate(-415.679 -155.679)">
    <path id="Path_18093" data-name="Path 18093" d="M2046.793,1421.957h8.635l1.208,2.543,1.208-2.543h3.628a1.4,1.4,0,0,0,1.4-1.4v-5.435a1.4,1.4,0,0,0-1.4-1.4h-14.6a1.4,1.4,0,0,0-1.4,1.4v5.51A1.329,1.329,0,0,0,2046.793,1421.957Z" transform="translate(-1629.465 -1257.714)" fill="none" stroke="#556068" stroke-linecap="round" stroke-miterlimit="10" stroke-width="0.642"/>
    <path id="Path_18094" data-name="Path 18094" d="M2051.362,1417.022a.157.157,0,1,1-.157-.157A.157.157,0,0,1,2051.362,1417.022Z" transform="translate(-1628.519 -1257.179)" fill="none" stroke="#556068" stroke-linecap="round" stroke-miterlimit="10" stroke-width="0.642"/>
    <path id="Path_18095" data-name="Path 18095" d="M2053.222,1417.022a.157.157,0,1,1-.157-.157A.157.157,0,0,1,2053.222,1417.022Z" transform="translate(-1628.203 -1257.179)" fill="none" stroke="#556068" stroke-linecap="round" stroke-miterlimit="10" stroke-width="0.642"/>
    <path id="Path_18096" data-name="Path 18096" d="M2055.084,1417.022a.157.157,0,1,1-.158-.157A.157.157,0,0,1,2055.084,1417.022Z" transform="translate(-1627.888 -1257.179)" fill="none" stroke="#556068" stroke-linecap="round" stroke-miterlimit="10" stroke-width="0.642"/>
    <path id="Path_18097" data-name="Path 18097" d="M2051.687,1434.291l3.415,3.415,16.664-16.662a.652.652,0,0,0,0-.923l-2.492-2.492a.652.652,0,0,0-.923,0Z" transform="translate(-1628.41 -1257.083)" fill="none" stroke="#556068" stroke-linecap="round" stroke-linejoin="round" stroke-width="0.642"/>
    <path id="Path_18098" data-name="Path 18098" d="M2055.468,1435.263l-1.232,1.232-3.153,1.29-.776-.776-.776-.776,1.29-3.153,1.232-1.232" transform="translate(-1628.776 -1254.639)" fill="none" stroke="#556068" stroke-linecap="round" stroke-linejoin="round" stroke-width="0.642"/>
    <line id="Line_5391" data-name="Line 5391" x1="1.63" y2="1.63" transform="translate(419.901 182.37)" fill="none" stroke="#556068" stroke-linecap="round" stroke-linejoin="round" stroke-width="0.642"/>
    <path id="Path_18099" data-name="Path 18099" d="M2067.618,1422.515l.806.806a2,2,0,0,1,0,2.833l-6.035,6.035" transform="translate(-1626.596 -1256.222)" fill="none" stroke="#556068" stroke-linecap="round" stroke-linejoin="round" stroke-width="0.642"/>
    <line id="Line_5392" data-name="Line 5392" x1="3.415" y1="3.415" transform="translate(434.629 165.857)" fill="none" stroke="#556068" stroke-linecap="round" stroke-linejoin="round" stroke-width="0.642"/>
    <path id="Path_18100" data-name="Path 18100" d="M2050.011,1417.5a11.2,11.2,0,0,1,.291-2.53h-3.582v5.306h3.639A11.187,11.187,0,0,1,2050.011,1417.5Z" transform="translate(-1629.252 -1257.501)" fill="#556068"/>
  </g>
</svg>
