<svg xmlns="http://www.w3.org/2000/svg" width="19.297" height="28.641" viewBox="0 0 19.297 28.641">
  <g id="discount" transform="translate(-917.68 -308.679)">
    <path id="Path_10878" data-name="Path 10878" d="M888.912,752.211h5.223V734.262a2.673,2.673,0,0,1-2.673-2.673H884.77a2.674,2.674,0,0,1-2.673,2.673v3.406" transform="translate(42.521 -422.589)" fill="none" stroke="#556068" stroke-linecap="round" stroke-linejoin="round" stroke-width="0.642"/>
    <path id="Path_10879" data-name="Path 10879" d="M885.166,738.607h-6.691a2.673,2.673,0,0,1-2.674,2.673V759.23h12.038V741.28A2.673,2.673,0,0,1,885.166,738.607Z" transform="translate(42.199 -422.23)" fill="none" stroke="#556068" stroke-linecap="round" stroke-linejoin="round" stroke-width="0.642"/>
    <circle id="Ellipse_8286" data-name="Ellipse 8286" cx="1.348" cy="1.348" r="1.348" transform="translate(922.672 318.757)" stroke-width="0.642" stroke="#556068" stroke-linecap="round" stroke-linejoin="round" fill="none"/>
    <path id="Path_10880" data-name="Path 10880" d="M889.237,735.2a1.348,1.348,0,1,0-1.349,1.349A1.348,1.348,0,0,0,889.237,735.2Z" transform="translate(42.748 -422.473)" fill="none" stroke="#556068" stroke-linecap="round" stroke-linejoin="round" stroke-width="0.642"/>
    <line id="Line_1983" data-name="Line 1983" y2="6.613" transform="translate(926.338 324.87)" fill="none" stroke="#556068" stroke-linecap="round" stroke-linejoin="round" stroke-width="0.642"/>
    <line id="Line_1984" data-name="Line 1984" y2="6.613" transform="translate(924.02 324.87)" fill="none" stroke="#556068" stroke-linecap="round" stroke-linejoin="round" stroke-width="0.642"/>
    <line id="Line_1985" data-name="Line 1985" y2="6.613" transform="translate(921.702 324.87)" fill="none" stroke="#556068" stroke-linecap="round" stroke-linejoin="round" stroke-width="0.642"/>
    <path id="Path_10881" data-name="Path 10881" d="M881.759,755.281a10.23,10.23,0,0,1-4.752-1.189v3.08h9.5v-3.08A10.233,10.233,0,0,1,881.759,755.281Z" transform="translate(42.261 -421.439)" fill="#556068"/>
  </g>
</svg>
