<svg xmlns="http://www.w3.org/2000/svg" width="27.893" height="28.759" viewBox="0 0 27.893 28.759">
  <g id="download" transform="translate(-683.679 -309.679)">
    <path id="Path_15624" data-name="Path 15624" d="M2053.322,2088.147h-7.111a1.993,1.993,0,0,1-1.992-1.992v-18.823a1.463,1.463,0,0,1,1.464-1.464h24.323a1.464,1.464,0,0,1,1.465,1.464v18.823a1.993,1.993,0,0,1-1.993,1.992h-7.187" transform="translate(-1360.219 -1755.868)" fill="none" stroke="#556068" stroke-linecap="round" stroke-linejoin="round" stroke-width="0.642"/>
    <circle id="Ellipse_8485" data-name="Ellipse 8485" cx="0.256" cy="0.256" r="0.256" transform="translate(687.15 312.687)" stroke-width="0.642" stroke="#556068" stroke-linecap="round" stroke-linejoin="round" fill="none"/>
    <path id="Path_15625" data-name="Path 15625" d="M2050.619,2068.729a.256.256,0,1,0-.257.256A.257.257,0,0,0,2050.619,2068.729Z" transform="translate(-1360.033 -1755.785)" fill="none" stroke="#556068" stroke-linecap="round" stroke-linejoin="round" stroke-width="0.642"/>
    <circle id="Ellipse_8486" data-name="Ellipse 8486" cx="0.256" cy="0.256" r="0.256" transform="translate(692.995 312.687)" stroke-width="0.642" stroke="#556068" stroke-linecap="round" stroke-linejoin="round" fill="none"/>
    <line id="Line_4369" data-name="Line 4369" x2="22.941" transform="translate(686.155 315.832)" fill="none" stroke="#556068" stroke-linecap="round" stroke-linejoin="round" stroke-width="0.642"/>
    <path id="Path_15626" data-name="Path 15626" d="M2053.118,2085.624l4.446-2.524,4.445,2.524-4.445,2.567" transform="translate(-1359.938 -1755.323)" fill="none" stroke="#556068" stroke-linecap="round" stroke-linejoin="round" stroke-width="0.642"/>
    <path id="Path_15627" data-name="Path 15627" d="M2054.969,2085.6l2.535-1.439,2.535,1.439-2.535,1.464Z" transform="translate(-1359.88 -1755.29)" fill="#556068"/>
    <path id="Path_15628" data-name="Path 15628" d="M2057.563,2093.246l-4.446-2.567v-5.133" transform="translate(-1359.938 -1755.246)" fill="none" stroke="#556068" stroke-linecap="round" stroke-miterlimit="10" stroke-width="0.642"/>
    <path id="Path_15629" data-name="Path 15629" d="M2057.427,2093.246l4.445-2.567v-5.133" transform="translate(-1359.802 -1755.246)" fill="none" stroke="#556068" stroke-linecap="round" stroke-miterlimit="10" stroke-width="0.642"/>
    <line id="Line_4370" data-name="Line 4370" y2="3.41" transform="translate(697.625 332.867)" fill="none" stroke="#556068" stroke-linecap="round" stroke-miterlimit="10" stroke-width="0.642"/>
    <path id="Path_15630" data-name="Path 15630" d="M2059.187,2073.313v3.262h2.565l-4.2,4.953-4.2-4.953h2.565v-3.262" transform="translate(-1359.93 -1755.632)" fill="none" stroke="#556068" stroke-linecap="round" stroke-linejoin="round" stroke-width="0.642"/>
  </g>
</svg>
