<svg xmlns="http://www.w3.org/2000/svg" width="28.642" height="26.503" viewBox="0 0 28.642 26.503">
  <g id="event-name" transform="translate(-1456.563 -773.221)">
    <path id="Path_6792" data-name="Path 6792" d="M1484.884,781.526v15.639a1.37,1.37,0,0,1-1.37,1.37h-25.259a1.37,1.37,0,0,1-1.37-1.37V781.526" transform="translate(0 0.868)" fill="none" stroke="#556068" stroke-linecap="round" stroke-linejoin="round" stroke-width="0.642"/>
    <g id="Group_2316" data-name="Group 2316" transform="translate(1461.107 776.107)">
      <path id="Path_6793" data-name="Path 6793" d="M1460.833,775.855a1.722,1.722,0,0,0-.14.676,1.767,1.767,0,1,0,3.534,0,1.722,1.722,0,0,0-.14-.676" transform="translate(-1460.693 -775.855)" fill="none" stroke="#556068" stroke-linecap="round" stroke-linejoin="round" stroke-width="0.642"/>
    </g>
    <g id="Group_2317" data-name="Group 2317" transform="translate(1477.126 776.107)">
      <path id="Path_6794" data-name="Path 6794" d="M1475.281,775.855a1.743,1.743,0,0,0-.14.676,1.767,1.767,0,1,0,3.534,0,1.722,1.722,0,0,0-.14-.676" transform="translate(-1475.141 -775.855)" fill="none" stroke="#556068" stroke-linecap="round" stroke-linejoin="round" stroke-width="0.642"/>
    </g>
    <line id="Line_234" data-name="Line 234" y1="3.039" transform="translate(1462.874 773.542)" fill="none" stroke="#556068" stroke-linecap="round" stroke-linejoin="round" stroke-width="0.642"/>
    <line id="Line_235" data-name="Line 235" y1="3.039" transform="translate(1478.893 773.542)" fill="none" stroke="#556068" stroke-linecap="round" stroke-linejoin="round" stroke-width="0.642"/>
    <line id="Line_236" data-name="Line 236" x1="13.151" transform="translate(1464.308 774.384)" fill="none" stroke="#556068" stroke-linecap="round" stroke-linejoin="round" stroke-width="0.642"/>
    <path id="Path_6795" data-name="Path 6795" d="M1461.44,774.3h-3.185a1.371,1.371,0,0,0-1.37,1.37V780.4h28v-4.731a1.371,1.371,0,0,0-1.37-1.37h-3.187" transform="translate(0 0.083)" fill="none" stroke="#556068" stroke-linecap="round" stroke-linejoin="round" stroke-width="0.642"/>
    <line id="Line_237" data-name="Line 237" y2="2.846" transform="translate(1464.817 785.369)" fill="none" stroke="#556068" stroke-linecap="round" stroke-linejoin="round" stroke-width="0.642"/>
    <line id="Line_238" data-name="Line 238" y2="2.846" transform="translate(1468.862 785.369)" fill="none" stroke="#556068" stroke-linecap="round" stroke-linejoin="round" stroke-width="0.642"/>
    <line id="Line_239" data-name="Line 239" y2="2.846" transform="translate(1472.906 785.369)" fill="none" stroke="#556068" stroke-linecap="round" stroke-linejoin="round" stroke-width="0.642"/>
    <line id="Line_240" data-name="Line 240" y2="2.846" transform="translate(1476.95 785.369)" fill="none" stroke="#556068" stroke-linecap="round" stroke-linejoin="round" stroke-width="0.642"/>
    <line id="Line_241" data-name="Line 241" y2="2.846" transform="translate(1464.817 792.335)" fill="none" stroke="#556068" stroke-linecap="round" stroke-linejoin="round" stroke-width="0.642"/>
    <line id="Line_242" data-name="Line 242" y2="2.846" transform="translate(1468.862 792.335)" fill="none" stroke="#556068" stroke-linecap="round" stroke-linejoin="round" stroke-width="0.642"/>
    <line id="Line_243" data-name="Line 243" y2="2.846" transform="translate(1472.906 792.335)" fill="none" stroke="#556068" stroke-linecap="round" stroke-linejoin="round" stroke-width="0.642"/>
    <line id="Line_244" data-name="Line 244" y2="2.846" transform="translate(1476.95 792.335)" fill="none" stroke="#556068" stroke-linecap="round" stroke-linejoin="round" stroke-width="0.642"/>
    <line id="Line_245" data-name="Line 245" x2="16.694" transform="translate(1462.537 790.299)" fill="none" stroke="#556068" stroke-linecap="round" stroke-linejoin="round" stroke-width="0.642"/>
  </g>
</svg>
