<svg xmlns="http://www.w3.org/2000/svg" width="27.5" height="24.518" viewBox="0 0 27.5 24.518">
  <g id="invoice-date" transform="translate(-1024.868 -1768.917)">
    <g id="Group_11358" data-name="Group 11358">
      <g id="Group_11357" data-name="Group 11357">
        <g id="Group_11356" data-name="Group 11356">
          <path id="Path_19020" data-name="Path 19020" d="M1047.9,1772.135v-2.2a.693.693,0,0,1,.693-.693h0a.693.693,0,0,1,.693.693v2.2a.693.693,0,0,1-.693.693h0A.693.693,0,0,1,1047.9,1772.135Z" fill="none" stroke="#556068" stroke-linecap="round" stroke-linejoin="round" stroke-width="0.642"/>
          <path id="Path_19021" data-name="Path 19021" d="M1044.219,1772.135v-2.2a.693.693,0,0,1,.693-.693h0a.693.693,0,0,1,.693.693v2.2a.693.693,0,0,1-.693.693h0A.693.693,0,0,1,1044.219,1772.135Z" fill="none" stroke="#556068" stroke-linecap="round" stroke-linejoin="round" stroke-width="0.642"/>
          <path id="Path_19022" data-name="Path 19022" d="M1040.537,1772.135v-2.2a.693.693,0,0,1,.694-.693h0a.693.693,0,0,1,.693.693v2.2a.693.693,0,0,1-.693.693h0A.694.694,0,0,1,1040.537,1772.135Z" fill="none" stroke="#556068" stroke-linecap="round" stroke-linejoin="round" stroke-width="0.642"/>
          <path id="Path_19023" data-name="Path 19023" d="M1036.856,1772.135v-2.2a.693.693,0,0,1,.693-.693h0a.693.693,0,0,1,.693.693v2.2a.693.693,0,0,1-.693.693h0A.693.693,0,0,1,1036.856,1772.135Z" fill="none" stroke="#556068" stroke-linecap="round" stroke-linejoin="round" stroke-width="0.642"/>
          <path id="Path_19024" data-name="Path 19024" d="M1033.175,1772.135v-2.2a.693.693,0,0,1,.693-.693h0a.693.693,0,0,1,.693.693v2.2a.693.693,0,0,1-.693.693h0A.693.693,0,0,1,1033.175,1772.135Z" fill="none" stroke="#556068" stroke-linecap="round" stroke-linejoin="round" stroke-width="0.642"/>
          <line id="Line_5825" data-name="Line 5825" x1="2.295" transform="translate(1045.605 1771.033)" fill="none" stroke="#556068" stroke-linecap="round" stroke-linejoin="round" stroke-width="0.642"/>
          <line id="Line_5826" data-name="Line 5826" x1="2.295" transform="translate(1041.924 1771.033)" fill="none" stroke="#556068" stroke-linecap="round" stroke-linejoin="round" stroke-width="0.642"/>
          <line id="Line_5827" data-name="Line 5827" x1="2.295" transform="translate(1038.242 1771.033)" fill="none" stroke="#556068" stroke-linecap="round" stroke-linejoin="round" stroke-width="0.642"/>
          <line id="Line_5828" data-name="Line 5828" x1="2.295" transform="translate(1034.561 1771.033)" fill="none" stroke="#556068" stroke-linecap="round" stroke-linejoin="round" stroke-width="0.642"/>
          <path id="Path_19025" data-name="Path 19025" d="M1049.14,1788.818h2.907v-16.763a1.022,1.022,0,0,0-1.022-1.022h-1.739" fill="none" stroke="#556068" stroke-linecap="round" stroke-linejoin="round" stroke-width="0.642"/>
          <path id="Path_19026" data-name="Path 19026" d="M1033.175,1771.033h-1.739a1.022,1.022,0,0,0-1.022,1.022v7.532" fill="none" stroke="#556068" stroke-linecap="round" stroke-linejoin="round" stroke-width="0.642"/>
        </g>
      </g>
    </g>
    <g id="Group_11359" data-name="Group 11359">
      <line id="Line_5829" data-name="Line 5829" y2="1.913" transform="translate(1035.708 1776.623)" fill="none" stroke="#556068" stroke-linecap="round" stroke-linejoin="round" stroke-width="0.642"/>
      <line id="Line_5830" data-name="Line 5830" y2="1.913" transform="translate(1039.39 1776.623)" fill="none" stroke="#556068" stroke-linecap="round" stroke-linejoin="round" stroke-width="0.642"/>
      <line id="Line_5831" data-name="Line 5831" y2="1.913" transform="translate(1043.071 1776.623)" fill="none" stroke="#556068" stroke-linecap="round" stroke-linejoin="round" stroke-width="0.642"/>
      <line id="Line_5832" data-name="Line 5832" y2="1.913" transform="translate(1046.753 1776.623)" fill="none" stroke="#556068" stroke-linecap="round" stroke-linejoin="round" stroke-width="0.642"/>
      <line id="Line_5833" data-name="Line 5833" y2="1.913" transform="translate(1039.39 1782.648)" fill="none" stroke="#556068" stroke-linecap="round" stroke-linejoin="round" stroke-width="0.642"/>
      <line id="Line_5834" data-name="Line 5834" y2="1.913" transform="translate(1043.071 1782.648)" fill="none" stroke="#556068" stroke-linecap="round" stroke-linejoin="round" stroke-width="0.642"/>
      <line id="Line_5835" data-name="Line 5835" y2="1.913" transform="translate(1046.753 1782.648)" fill="none" stroke="#556068" stroke-linecap="round" stroke-linejoin="round" stroke-width="0.642"/>
    </g>
    <line id="Line_5836" data-name="Line 5836" x2="15.819" transform="translate(1033.321 1780.472)" fill="none" stroke="#556068" stroke-linecap="round" stroke-linejoin="round" stroke-width="0.642"/>
    <path id="Path_19027" data-name="Path 19027" d="M1030.387,1793l-5.2-3v-6l5.2-2.951,5.2,2.951-5.2,3" fill="none" stroke="#556068" stroke-linecap="round" stroke-linejoin="round" stroke-width="0.642"/>
    <path id="Path_19028" data-name="Path 19028" d="M1030.387,1793l5.2-3v-6" fill="none" stroke="#556068" stroke-linecap="round" stroke-linejoin="round" stroke-width="0.642"/>
    <line id="Line_5837" data-name="Line 5837" y2="3.987" transform="translate(1030.387 1786.995)" fill="none" stroke="#556068" stroke-linecap="round" stroke-linejoin="round" stroke-width="0.642"/>
    <g id="Group_11364" data-name="Group 11364">
      <g id="Group_11363" data-name="Group 11363">
        <g id="Group_11362" data-name="Group 11362">
          <g id="Group_11361" data-name="Group 11361">
            <g id="Group_11360" data-name="Group 11360">
              <path id="Path_19029" data-name="Path 19029" d="M1042.694,1789.836h2.082v1.64l3.167-2.684-3.167-2.683v1.641h-2.086" fill="none" stroke="#556068" stroke-linecap="round" stroke-linejoin="round" stroke-width="0.642"/>
            </g>
          </g>
        </g>
      </g>
    </g>
    <g id="Group_11365" data-name="Group 11365">
      <line id="Line_5838" data-name="Line 5838" transform="translate(1041.441 1789.776)" fill="none" stroke="#556068" stroke-linecap="round" stroke-linejoin="round" stroke-width="0.642"/>
      <line id="Line_5839" data-name="Line 5839" x1="2.203" transform="translate(1037.769 1789.776)" stroke-dasharray="0 1.469" stroke="#556068" stroke-linecap="round" stroke-linejoin="round" stroke-width="0.642" fill="none"/>
      <line id="Line_5840" data-name="Line 5840" transform="translate(1037.035 1789.776)" fill="none" stroke="#556068" stroke-linecap="round" stroke-linejoin="round" stroke-width="0.642"/>
    </g>
    <g id="Group_11366" data-name="Group 11366">
      <path id="Path_19030" data-name="Path 19030" d="M1026.4,1784.7v4.593l1.693.978v-4.665l3.867-2.271-1.578-.9Z" fill="#556068"/>
    </g>
  </g>
</svg>
