<svg xmlns="http://www.w3.org/2000/svg" width="28.641" height="27" viewBox="0 0 28.641 27">
  <g id="print" transform="translate(-88.649 -812.972)">
    <path id="Path_9658" data-name="Path 9658" d="M112.017,836.627h4.953v-5.808a1.869,1.869,0,0,0-1.87-1.87H90.84a1.869,1.869,0,0,0-1.87,1.87v5.808h5.08" transform="translate(0 0.989)" fill="none" stroke="#556068" stroke-linecap="round" stroke-linejoin="round" stroke-width="0.642"/>
    <path id="Path_9659" data-name="Path 9659" d="M111.221,829.938V818.012l-4.743-4.72h-12.4v16.645" transform="translate(0.322 0)" fill="none" stroke="#556068" stroke-linecap="round" stroke-linejoin="round" stroke-width="0.642"/>
    <line id="Line_1575" data-name="Line 1575" x2="9.257" transform="translate(98.341 821.615)" fill="none" stroke="#556068" stroke-linecap="round" stroke-linejoin="round" stroke-width="0.642"/>
    <line id="Line_1576" data-name="Line 1576" x2="9.257" transform="translate(98.25 824.146)" fill="none" stroke="#556068" stroke-linecap="round" stroke-linejoin="round" stroke-width="0.642"/>
    <line id="Line_1577" data-name="Line 1577" x2="9.257" transform="translate(98.387 819.084)" fill="none" stroke="#556068" stroke-linecap="round" stroke-linejoin="round" stroke-width="0.642"/>
    <line id="Line_1578" data-name="Line 1578" x2="16.781" transform="translate(94.579 834.509)" fill="none" stroke="#556068" stroke-linecap="round" stroke-linejoin="round" stroke-width="0.642"/>
    <path id="Path_9660" data-name="Path 9660" d="M111.12,835.178l1.625,3.091H92.788l1.55-3.091" transform="translate(0.241 1.382)" fill="none" stroke="#556068" stroke-linecap="round" stroke-linejoin="round" stroke-width="0.642"/>
    <line id="Line_1579" data-name="Line 1579" x2="6.658" transform="translate(99.641 837.28)" fill="none" stroke="#556068" stroke-linecap="round" stroke-linejoin="round" stroke-width="0.642"/>
    <path id="Path_9661" data-name="Path 9661" d="M115.021,830.193H90.762a.548.548,0,0,0-.548.548v1.352h25.355V830.74A.548.548,0,0,0,115.021,830.193Z" transform="translate(0.079 1.067)" fill="#556068"/>
  </g>
</svg>
