<svg xmlns="http://www.w3.org/2000/svg" width="26.199" height="28.641" viewBox="0 0 26.199 28.641">
  <g id="tax" transform="translate(-90.792 -321.616)">
    <g id="Group_13640" data-name="Group 13640">
      <path id="Path_13017" data-name="Path 13017" d="M112.358,338.578v-6.454a1.006,1.006,0,0,0-1.006-1.006h-11V348.67h11a1.006,1.006,0,0,0,1.006-1.006v-6.453" transform="translate(1.275 1.267)" fill="none" stroke="#556068" stroke-linecap="round" stroke-linejoin="round" stroke-width="0.642"/>
      <path id="Path_13018" data-name="Path 13018" d="M110.158,337.674h3.729a.338.338,0,0,1,.338.338v1.957a.338.338,0,0,1-.338.337h-3.729a1.315,1.315,0,0,1-1.316-1.315h0A1.316,1.316,0,0,1,110.158,337.674Z" transform="translate(2.446 2.171)" fill="none" stroke="#556068" stroke-linecap="round" stroke-linejoin="round" stroke-width="0.642"/>
      <path id="Path_13019" data-name="Path 13019" d="M110.9,346.441h2.029v-6.454" transform="translate(2.73 2.491)" fill="none" stroke="#556068" stroke-linecap="round" stroke-linejoin="round" stroke-width="0.642"/>
      <path id="Path_13020" data-name="Path 13020" d="M110.9,332h2.029v6.454" transform="translate(2.73 1.389)" fill="none" stroke="#556068" stroke-linecap="round" stroke-linejoin="round" stroke-width="0.642"/>
      <circle id="Ellipse_8368" data-name="Ellipse 8368" cx="0.18" cy="0.18" r="0.18" transform="translate(112.521 340.982)" stroke-width="0.642" stroke="#556068" stroke-linecap="round" stroke-linejoin="round" fill="none"/>
      <path id="Path_13021" data-name="Path 13021" d="M103.6,340.581a1.412,1.412,0,1,0,2.824,0c0-.78-.578-1.14-1.412-1.412-.741-.241-1.412-.632-1.412-1.412a1.412,1.412,0,0,1,2.824,0" transform="translate(1.723 1.988)" fill="none" stroke="#556068" stroke-linecap="round" stroke-linejoin="round" stroke-width="0.642"/>
      <line id="Line_2870" data-name="Line 2870" y2="0.797" transform="translate(106.733 337.545)" fill="none" stroke="#556068" stroke-linecap="round" stroke-linejoin="round" stroke-width="0.642"/>
      <line id="Line_2871" data-name="Line 2871" y2="0.797" transform="translate(106.733 343.981)" fill="none" stroke="#556068" stroke-linecap="round" stroke-linejoin="round" stroke-width="0.642"/>
      <line id="Line_2872" data-name="Line 2872" y2="9.113" transform="translate(101.624 321.938)" fill="none" stroke="#556068" stroke-linecap="round" stroke-linejoin="round" stroke-width="0.642"/>
      <path id="Path_13022" data-name="Path 13022" d="M91.113,332.46a10.511,10.511,0,0,1,20.929-1.409" transform="translate(0)" fill="none" stroke="#556068" stroke-linecap="round" stroke-linejoin="round" stroke-width="0.642"/>
      <path id="Path_13023" data-name="Path 13023" d="M98.9,323.22c-1.594,1.478-3.5,4.249-3.5,9.052" transform="translate(0.591 0.177)" fill="none" stroke="#556068" stroke-linecap="round" stroke-linejoin="round" stroke-width="0.642"/>
      <path id="Path_13024" data-name="Path 13024" d="M102.228,323.22a11.333,11.333,0,0,1,3.442,7.659" transform="translate(1.534 0.177)" fill="none" stroke="#556068" stroke-linecap="round" stroke-linejoin="round" stroke-width="0.642"/>
      <path id="Path_13025" data-name="Path 13025" d="M101.235,327.581c-5.8,0-7.308-3.045-7.308-3.045" transform="translate(0.388 0.359)" fill="none" stroke="#556068" stroke-linecap="round" stroke-linejoin="round" stroke-width="0.642"/>
      <path id="Path_13026" data-name="Path 13026" d="M107.66,324.536s-1.5,3.045-7.308,3.045" transform="translate(1.275 0.359)" fill="none" stroke="#556068" stroke-linecap="round" stroke-linejoin="round" stroke-width="0.642"/>
      <path id="Path_13027" data-name="Path 13027" d="M100.292,341.611a10.513,10.513,0,0,1-9.179-10.427" transform="translate(0 1.276)" fill="none" stroke="#556068" stroke-linecap="round" stroke-linejoin="round" stroke-width="0.642"/>
    </g>
    <path id="Path_13028" data-name="Path 13028" d="M105.135,345.807l-3.61-3.61v3.61Z" transform="translate(1.437 2.796)" fill="#556068"/>
  </g>
</svg>
