<svg xmlns="http://www.w3.org/2000/svg" width="25.459" height="28.642" viewBox="0 0 25.459 28.642">
  <g id="tickets" transform="translate(-999.679 -305.679)">
    <path id="Path_20141" data-name="Path 20141" d="M1632.032,1705.177a1.661,1.661,0,0,0,3.321,0c0-.917-.681-1.341-1.661-1.661-.872-.285-1.661-.744-1.661-1.662a1.661,1.661,0,0,1,3.321,0" transform="translate(-615.186 -1381.207)" fill="none" stroke="#556068" stroke-linecap="round" stroke-linejoin="round" stroke-width="0.642"/>
    <line id="Line_6230" data-name="Line 6230" y2="0.937" transform="translate(1018.506 318.062)" fill="none" stroke="#556068" stroke-linecap="round" stroke-linejoin="round" stroke-width="0.642"/>
    <line id="Line_6231" data-name="Line 6231" y2="0.937" transform="translate(1018.506 325.632)" fill="none" stroke="#556068" stroke-linecap="round" stroke-linejoin="round" stroke-width="0.642"/>
    <circle id="Ellipse_8693" data-name="Ellipse 8693" cx="6.311" cy="6.311" r="6.311" transform="translate(1012.195 315.998)" stroke-width="0.642" stroke="#556068" stroke-linecap="round" stroke-linejoin="round" fill="none"/>
    <path id="Path_20142" data-name="Path 20142" d="M1635.1,1698.29v-10h-18.506v28h1.837a2.013,2.013,0,1,1,4.025,0h1.378a2.013,2.013,0,1,1,4.025,0h1.378a2.013,2.013,0,1,1,4.025,0h1.837v-5.379" transform="translate(-616.593 -1382.291)" fill="none" stroke="#556068" stroke-linecap="round" stroke-miterlimit="10" stroke-width="0.642"/>
    <line id="Line_6232" data-name="Line 6232" x2="1.937" transform="translate(1002.361 312.905)" fill="none" stroke="#556068" stroke-linecap="round" stroke-miterlimit="10" stroke-width="0.642"/>
    <line id="Line_6233" data-name="Line 6233" x2="1.936" transform="translate(1006.31 312.905)" fill="none" stroke="#556068" stroke-linecap="round" stroke-miterlimit="10" stroke-width="0.642"/>
    <line id="Line_6234" data-name="Line 6234" x2="1.937" transform="translate(1010.26 312.905)" fill="none" stroke="#556068" stroke-linecap="round" stroke-miterlimit="10" stroke-width="0.642"/>
    <line id="Line_6235" data-name="Line 6235" x2="1.936" transform="translate(1014.209 312.905)" fill="none" stroke="#556068" stroke-linecap="round" stroke-miterlimit="10" stroke-width="0.642"/>
    <path id="Path_20143" data-name="Path 20143" d="M1617.848,1689.545v3.635a31.136,31.136,0,0,1,15.768,0v-3.635Z" transform="translate(-616.479 -1382.177)" fill="#556068"/>
  </g>
</svg>
