<svg xmlns="http://www.w3.org/2000/svg" width="28.641" height="26.822" viewBox="0 0 28.641 26.822">
  <g id="total-price" transform="translate(-782.349 -126.901)">
    <path id="Path_10897" data-name="Path 10897" d="M848.529,857.954l4.8,2.737-7.981,4.608" transform="translate(-46.564 -724.768)" fill="none" stroke="#556068" stroke-linecap="round" stroke-linejoin="round" stroke-width="0.642"/>
    <path id="Path_10898" data-name="Path 10898" d="M841.41,865.287l-7.961-4.6,4.8-2.737" transform="translate(-46.872 -724.768)" fill="none" stroke="#556068" stroke-linecap="round" stroke-linejoin="round" stroke-width="0.642"/>
    <path id="Path_10899" data-name="Path 10899" d="M853.633,866.514v5.613l-2.779,1.6-7.313,4.222-10.092-5.827v-5.764" transform="translate(-46.872 -724.55)" fill="none" stroke="#556068" stroke-linecap="round" stroke-linejoin="round" stroke-width="0.642"/>
    <line id="Line_1988" data-name="Line 1988" y2="5.236" transform="translate(796.669 144.254)" fill="none" stroke="#556068" stroke-linecap="round" stroke-linejoin="round" stroke-width="0.642"/>
    <path id="Path_10900" data-name="Path 10900" d="M853.379,860.622l3.908,2.256L847.195,868.7l-3.908-2.256" transform="translate(-46.618 -724.699)" fill="none" stroke="#556068" stroke-linecap="round" stroke-linejoin="round" stroke-width="0.642"/>
    <path id="Path_10901" data-name="Path 10901" d="M833.547,860.622l-3.908,2.256,10.092,5.827,3.908-2.256" transform="translate(-46.97 -724.699)" fill="none" stroke="#556068" stroke-linecap="round" stroke-linejoin="round" stroke-width="0.642"/>
    <path id="Path_10902" data-name="Path 10902" d="M842.171,857.583a1.145,1.145,0,0,0,2.29,0c0-.632-.469-.924-1.145-1.145-.6-.2-1.145-.513-1.145-1.145a1.145,1.145,0,1,1,2.29,0" transform="translate(-46.647 -724.866)" fill="none" stroke="#556068" stroke-linecap="round" stroke-linejoin="round" stroke-width="0.642"/>
    <line id="Line_1989" data-name="Line 1989" y2="0.646" transform="translate(796.669 128.644)" fill="none" stroke="#556068" stroke-linecap="round" stroke-linejoin="round" stroke-width="0.642"/>
    <line id="Line_1990" data-name="Line 1990" y2="0.646" transform="translate(796.669 133.862)" fill="none" stroke="#556068" stroke-linecap="round" stroke-linejoin="round" stroke-width="0.642"/>
    <path id="Path_10903" data-name="Path 10903" d="M847.747,856.491a4.351,4.351,0,1,1-4.351-4.351A4.351,4.351,0,0,1,847.747,856.491Z" transform="translate(-46.727 -724.918)" fill="none" stroke="#556068" stroke-linecap="round" stroke-linejoin="round" stroke-width="0.642"/>
    <path id="Path_10904" data-name="Path 10904" d="M854.751,862.841l-1.389-.8-7.644,4.383,1.415.817Z" transform="translate(-46.555 -724.662)" fill="#556068"/>
    <path id="Path_10905" data-name="Path 10905" d="M832.06,862.841l1.389-.8,7.644,4.383-1.415.817Z" transform="translate(-46.908 -724.662)" fill="#556068"/>
  </g>
</svg>
