<svg xmlns="http://www.w3.org/2000/svg" width="26.779" height="28.642" viewBox="0 0 26.779 28.642">
  <g id="transaction-id" transform="translate(-1010.679 -29.679)">
    <path id="Path_13034" data-name="Path 13034" d="M215.951,444.06a1.651,1.651,0,1,1-1.651-1.651A1.651,1.651,0,0,1,215.951,444.06Z" transform="translate(801.456 -410.291)" fill="none" stroke="#556068" stroke-linecap="round" stroke-linejoin="round" stroke-width="0.642"/>
    <rect id="Rectangle_847" data-name="Rectangle 847" width="26.137" height="16.312" rx="0.858" transform="translate(1011 30)" stroke-width="0.642" stroke="#556068" stroke-linecap="round" stroke-linejoin="round" fill="none"/>
    <rect id="Rectangle_848" data-name="Rectangle 848" width="4.451" height="3.302" rx="0.891" transform="translate(1029.647 32.118)" fill="#556068"/>
    <path id="Path_13035" data-name="Path 13035" d="M216.283,445.478a1.627,1.627,0,0,0,.832.233,1.651,1.651,0,0,0,0-3.3,1.625,1.625,0,0,0-.832.232" transform="translate(802.242 -410.291)" fill="none" stroke="#556068" stroke-linecap="round" stroke-linejoin="round" stroke-width="0.642"/>
    <line id="Line_2879" data-name="Line 2879" x2="2.879" transform="translate(1014.742 42.754)" fill="none" stroke="#556068" stroke-linecap="round" stroke-linejoin="round" stroke-width="0.642"/>
    <line id="Line_2880" data-name="Line 2880" x2="2.879" transform="translate(1020 42.754)" fill="none" stroke="#556068" stroke-linecap="round" stroke-linejoin="round" stroke-width="0.642"/>
    <line id="Line_2881" data-name="Line 2881" x2="2.879" transform="translate(1025.258 42.754)" fill="none" stroke="#556068" stroke-linecap="round" stroke-linejoin="round" stroke-width="0.642"/>
    <line id="Line_2882" data-name="Line 2882" x2="2.879" transform="translate(1030.516 42.754)" fill="none" stroke="#556068" stroke-linecap="round" stroke-linejoin="round" stroke-width="0.642"/>
    <path id="Path_13036" data-name="Path 13036" d="M219.8,455.768v3.825H216.8l4.921,5.807,4.92-5.807h-3.008v-3.825" transform="translate(802.353 -407.401)" fill="none" stroke="#556068" stroke-linecap="round" stroke-linejoin="round" stroke-width="0.642"/>
  </g>
</svg>
